{"title":"Again kasargod kadar bai (Malayalam)","uid":6160388,"size":645778827,"categoryP":"video","categoryS":"movies","magnet":"?xt=urn:btih:4b6021c0cc5cd8230de1377c2da824d38e3f5cba&amp;dn=Again+kasargod+kadar+bai+%28Malayalam%29&amp;tr=udp%3A%2F%2Ftracker.openbittorrent.com%3A80&amp;tr=udp%3A%2F%2Fopen.demonii.com%3A1337&amp;tr=udp%3A%2F%2Ftracker.coppersurfer.tk%3A6969&amp;tr=udp%3A%2F%2Fexodus.desync.com%3A6969","seeders":1,"leechers":0,"uploader":"cijob","files":1,"time":1297193296,"description":"                           : Matroska\nFile size                        : 616 MiB\nDuration                         : 2h 7mn\nOverall bit rate                 : 677 Kbps\nWriting application              : Lavf52.0.0\nWriting library                  : Lavf52.0.0\n\nVideo\nID                               : 1\nFormat                           : MPEG-4 Visual\nFormat profile                   : Simple@L1\nFormat settings, BVOP            : No\nFormat settings, QPel            : No\nFormat settings, GMC             : No warppoints\nFormat settings, Matrix          : Default (H.263)\nCodec ID                         : V_MPEG4/ISO/ASP\nCodec ID/Info                    : Advanced Simple Profile\nDuration                         : 2h 7mn\nBit rate                         : 536 Kbps\nWidth                            : 640 pixels\nHeight                           : 272 pixels\nDisplay aspect ratio             : 2.35:1\nFrame rate mode                  : Constant\nFrame rate                       : 20.000 fps\nColor space                      : YUV\nChroma subsampling               : 4:2:0\nBit depth                        : 8 bits\nScan type                        : Progressive\nBits/(Pixel*Frame)               : 0.154\nStream size                      : 487 MiB (79%)\nWriting library                  : Lavc52.48.0\n\nAudio\nID                               : 2\nFormat                           : MPEG Audio\nFormat version                   : Version 1\nFormat profile                   : Layer 2\nCodec ID                         : A_MPEG/L2\nCodec ID/Hint                    : MP2\nDuration                         : 2h 7mn\nBit rate mode                    : Constant\nBit rate                         : 128 Kbps\nChannel(s)                       : 2 channels\nSampling rate                    : 44.1 KHz\nBit depth                        : 16 bits\nStream size                      : 116 MiB (19%)\n","torrent":{"xt":"urn:btih:4b6021c0cc5cd8230de1377c2da824d38e3f5cba","amp;dn":"Again+kasargod+kadar+bai+%28Malayalam%29","amp;tr":["udp%3A%2F%2Ftracker.openbittorrent.com%3A80","udp%3A%2F%2Fopen.demonii.com%3A1337","udp%3A%2F%2Ftracker.coppersurfer.tk%3A6969","udp%3A%2F%2Fexodus.desync.com%3A6969"],"infoHash":"4b6021c0cc5cd8230de1377c2da824d38e3f5cba","infoHashBuffer":{"type":"Buffer","data":[75,96,33,192,204,92,216,35,13,225,55,124,45,168,36,211,142,63,92,186]},"announce":[],"urlList":[]}}